<?xml version="1.0" encoding="UTF-8"?>
<svg width="800" height="600" viewBox="0 0 800 600" fill="none" xmlns="http://www.w3.org/2000/svg">
  <!-- Background -->
  <rect width="800" height="600" fill="#F8F9FA" />
  
  <!-- Analysis Interface -->
  <g transform="translate(50, 50)">
    <rect width="700" height="500" rx="8" fill="#FFFFFF" stroke="#E0E0E0" stroke-width="2" />
    
    <!-- Toolbar -->
    <rect x="0" y="0" width="700" height="50" rx="8 8 0 0" fill="#6C5CE7" />
    <text x="350" y="30" font-family="Arial" font-size="16" font-weight="bold" fill="#FFFFFF" text-anchor="middle">Analysis Tool</text>
    
    <!-- UI Design Input -->
    <rect x="20" y="70" width="300" height="400" rx="4" fill="#F0F0F0" stroke="#D0D0D0" stroke-width="1" />
    <text x="170" y="90" font-family="Arial" font-size="14" font-weight="bold" fill="#333333" text-anchor="middle">UI Design</text>
    
    <!-- UI Elements -->
    <rect x="40" y="100" width="260" height="50" rx="4" fill="#FFFFFF" stroke="#D0D0D0" stroke-width="1" />
    <text x="170" y="130" font-family="Arial" font-size="14" fill="#333333" text-anchor="middle">Header</text>
    
    <rect x="40" y="160" width="260" height="100" rx="4" fill="#FFFFFF" stroke="#D0D0D0" stroke-width="1" />
    <text x="170" y="210" font-family="Arial" font-size="14" fill="#333333" text-anchor="middle">Content</text>
    
    <rect x="40" y="270" width="260" height="50" rx="4" fill="#FFFFFF" stroke="#D0D0D0" stroke-width="1" />
    <text x="170" y="300" font-family="Arial" font-size="14" fill="#333333" text-anchor="middle">Footer</text>
    
    <rect x="40" y="330" width="260" height="50" rx="4" fill="#FFFFFF" stroke="#D0D0D0" stroke-width="1" />
    <text x="170" y="360" font-family="Arial" font-size="14" fill="#333333" text-anchor="middle">Button</text>
    
    <!-- Analysis Results -->
    <rect x="340" y="70" width="340" height="400" rx="4" fill="#F0F0F0" stroke="#D0D0D0" stroke-width="1" />
    <text x="510" y="90" font-family="Arial" font-size="14" font-weight="bold" fill="#333333" text-anchor="middle">Analysis Results</text>
    
    <!-- Results Content -->
    <rect x="360" y="100" width="300" height="30" rx="4" fill="#FFFFFF" stroke="#D0D0D0" stroke-width="1" />
    <text x="380" y="120" font-family="Arial" font-size="14" fill="#333333">Components: 4</text>
    
    <rect x="360" y="140" width="300" height="30" rx="4" fill="#FFFFFF" stroke="#D0D0D0" stroke-width="1" />
    <text x="380" y="160" font-family="Arial" font-size="14" fill="#333333">Layout: Vertical</text>
    
    <rect x="360" y="180" width="300" height="30" rx="4" fill="#FFFFFF" stroke="#D0D0D0" stroke-width="1" />
    <text x="380" y="200" font-family="Arial" font-size="14" fill="#333333">Style: Modern</text>
    
    <rect x="360" y="220" width="300" height="30" rx="4" fill="#FFFFFF" stroke="#D0D0D0" stroke-width="1" />
    <text x="380" y="240" font-family="Arial" font-size="14" fill="#333333">Colors: 3</text>
    
    <rect x="360" y="260" width="300" height="30" rx="4" fill="#FFFFFF" stroke="#D0D0D0" stroke-width="1" />
    <text x="380" y="280" font-family="Arial" font-size="14" fill="#333333">Fonts: 2</text>
    
    <rect x="360" y="300" width="300" height="30" rx="4" fill="#FFFFFF" stroke="#D0D0D0" stroke-width="1" />
    <text x="380" y="320" font-family="Arial" font-size="14" fill="#333333">Spacing: Consistent</text>
    
    <rect x="360" y="340" width="300" height="30" rx="4" fill="#FFFFFF" stroke="#D0D0D0" stroke-width="1" />
    <text x="380" y="360" font-family="Arial" font-size="14" fill="#333333">Responsive: Yes</text>
    
    <rect x="360" y="380" width="300" height="30" rx="4" fill="#FFFFFF" stroke="#D0D0D0" stroke-width="1" />
    <text x="380" y="400" font-family="Arial" font-size="14" fill="#333333">Accessibility: Good</text>
  </g>
</svg> 