<svg xmlns="http://www.w3.org/2000/svg" width="80" height="80" viewBox="0 0 80 80">
  <defs>
    <linearGradient id="gdpr-gradient" x1="0%" y1="0%" x2="100%" y2="100%">
      <stop offset="0%" stop-color="#3498db" />
      <stop offset="100%" stop-color="#2ecc71" />
    </linearGradient>
  </defs>
  <circle cx="40" cy="40" r="38" fill="white" stroke="url(#gdpr-gradient)" stroke-width="3" />
  <!-- Shield shape -->
  <path d="M40 20 L24 25 L24 42 C24 52 40 60 40 60 C40 60 56 52 56 42 L56 25 L40 20 Z" fill="#f0f0f0" stroke="#3498db" stroke-width="2" />
  <!-- Stars representing EU -->
  <g fill="#3498db">
    <circle cx="31" cy="36" r="2" />
    <circle cx="37" cy="33" r="2" />
    <circle cx="43" cy="33" r="2" />
    <circle cx="49" cy="36" r="2" />
    <circle cx="40" cy="40" r="2" />
    <circle cx="35" cy="44" r="2" />
    <circle cx="45" cy="44" r="2" />
    <circle cx="31" cy="48" r="2" />
    <circle cx="40" cy="50" r="2" />
    <circle cx="49" cy="48" r="2" />
  </g>
  <!-- Text label -->
  <text x="40" y="71" fill="#3498db" font-family="Arial, sans-serif" font-size="10" font-weight="bold" text-anchor="middle">GDPR</text>
</svg> 