<?xml version="1.0" encoding="UTF-8"?>
<svg width="800" height="200" viewBox="0 0 800 200" fill="none" xmlns="http://www.w3.org/2000/svg">
  <!-- Background -->
  <rect width="800" height="200" fill="#F8F9FA" />
  
  <!-- Cocos Creator -->
  <g transform="translate(50, 50)">
    <rect width="150" height="100" rx="8" fill="#FFFFFF" stroke="#E0E0E0" stroke-width="2" />
    <text x="75" y="40" font-family="Arial" font-size="16" font-weight="bold" fill="#333333" text-anchor="middle">Cocos Creator</text>
    <path d="M40 60 L110 60 M75 35 L75 85" stroke="#6C5CE7" stroke-width="4" />
  </g>
  
  <!-- Unity -->
  <g transform="translate(250, 50)">
    <rect width="150" height="100" rx="8" fill="#FFFFFF" stroke="#E0E0E0" stroke-width="2" />
    <text x="75" y="40" font-family="Arial" font-size="16" font-weight="bold" fill="#333333" text-anchor="middle">Unity</text>
    <circle cx="75" cy="65" r="20" fill="none" stroke="#00B894" stroke-width="4" />
    <path d="M65 65 L85 65 M75 55 L75 75" stroke="#00B894" stroke-width="4" />
  </g>
  
  <!-- Unreal Engine -->
  <g transform="translate(450, 50)">
    <rect width="150" height="100" rx="8" fill="#FFFFFF" stroke="#E0E0E0" stroke-width="2" />
    <text x="75" y="40" font-family="Arial" font-size="16" font-weight="bold" fill="#333333" text-anchor="middle">Unreal Engine</text>
    <path d="M55 60 L95 60 M75 40 L75 80" stroke="#FD9644" stroke-width="4" />
  </g>
  
  <!-- Godot -->
  <g transform="translate(650, 50)">
    <rect width="150" height="100" rx="8" fill="#FFFFFF" stroke="#E0E0E0" stroke-width="2" />
    <text x="75" y="40" font-family="Arial" font-size="16" font-weight="bold" fill="#333333" text-anchor="middle">Godot</text>
    <path d="M60 60 L90 60 M75 45 L75 75" stroke="#FC5C65" stroke-width="4" />
  </g>
</svg> 